<svg xmlns="http://www.w3.org/2000/svg" width="9" height="10" viewBox="0 0 9 10" fill="none">
<path fill-rule="evenodd" clip-rule="evenodd" d="M0.0943634 6.9903H1.04268C1.14007 8.25244 1.33485 8.5437 1.91918 9.12623L1.59049 9.86349C1.56187 9.9277 1.60901 10 1.67949 10H4.45131H4.5487H7.32051C7.39099 10 7.43813 9.9277 7.40951 9.86349L7.08082 9.12623C7.66515 8.5437 7.85993 8.25244 7.95732 6.9903H8.90564C8.96844 6.9903 9.01464 6.93214 8.99571 6.87244C8.81287 6.2957 8.21154 5.30199 7.47037 4.56312C7.09018 4.1841 7.05409 3.5068 7.01964 2.8602C7.00997 2.67866 7.00042 2.49953 6.98343 2.33011C6.88694 1.36828 6.21696 0.0253013 4.5 0.000366211C2.78304 0.0253013 2.11306 1.36828 2.01657 2.33011C1.99958 2.49953 1.99004 2.67866 1.98036 2.8602C1.94591 3.5068 1.90983 4.1841 1.52963 4.56312C0.788458 5.30199 0.187134 6.2957 0.00428732 6.87244C-0.0146384 6.93214 0.031562 6.9903 0.0943634 6.9903ZM3.89559 2.03885C3.89559 2.30695 3.67758 2.52429 3.40864 2.52429C3.13971 2.52429 2.9217 2.30695 2.9217 2.03885C2.9217 1.77075 3.13971 1.55341 3.40864 1.55341C3.67758 1.55341 3.89559 1.77075 3.89559 2.03885ZM6.62244 6.99023C6.62244 8.16987 5.66318 9.12615 4.47988 9.12615C3.29657 9.12615 2.33731 8.16987 2.33731 6.99023C2.33731 5.81059 3.29657 4.85431 4.47988 4.85431C5.66318 4.85431 6.62244 5.81059 6.62244 6.99023ZM5.55109 2.52429C5.82002 2.52429 6.03804 2.30695 6.03804 2.03885C6.03804 1.77075 5.82002 1.55341 5.55109 1.55341C5.28216 1.55341 5.06414 1.77075 5.06414 2.03885C5.06414 2.30695 5.28216 2.52429 5.55109 2.52429ZM4.00767 3.84822C3.8121 3.65327 3.8121 3.33717 4.00767 3.14222L4.12584 3.02441C4.3214 2.82945 4.63848 2.82945 4.83404 3.02441L4.95221 3.14222C5.14778 3.33717 5.14778 3.65327 4.95221 3.84822L4.83404 3.96603C4.63848 4.16099 4.3214 4.16099 4.12584 3.96603L4.00767 3.84822Z" fill="black"/>
</svg>