<svg xmlns="http://www.w3.org/2000/svg" width="8" height="10" viewBox="0 0 8 10" fill="none">
<path fill-rule="evenodd" clip-rule="evenodd" d="M2.47554 2.52194C3.19517 2.49042 3.6645 2.90024 4.13382 2.90024C4.60315 2.90024 5.04119 2.49042 5.79211 2.52194C6.44916 2.52194 7.1688 2.77414 7.66941 3.3731C6.94978 3.71987 6.41788 4.47645 6.41788 5.35913C6.41788 6.30486 7.04364 7.09297 7.85714 7.37669C7.51297 8.38547 6.94978 9.33119 6.16757 9.83558C5.16634 10.3715 4.57186 9.42577 4.13382 9.42577C3.6645 9.42577 3.10131 10.3715 2.10008 9.83558C0.911117 9.079 0.191484 7.34516 0.0350415 5.89505C-0.246554 3.40463 1.224 2.52194 2.47554 2.52194ZM4.00867 2.36432C3.97738 0.882681 4.75959 0.189146 6.10499 0C5.85469 1.60774 5.22892 2.11213 4.00867 2.36432Z" fill="black"/>
</svg>